<svg width="89" height="88" viewBox="0 0 89 88" fill="none" xmlns="http://www.w3.org/2000/svg">
<g clip-path="url(#clip0_315_1613)">
<rect x="0.91394" width="87.5156" height="87.5156" rx="17.5031" fill="white"/>
<path fill-rule="evenodd" clip-rule="evenodd" d="M88.4294 0H0.913818V87.5156H88.4294V0ZM44.6849 21.8789C32.3542 21.8789 22.7928 30.9149 22.7928 43.1142C22.7928 49.4957 25.4089 55.0125 29.6669 58.8217C30.0227 59.1391 30.2416 59.5879 30.2526 60.0696L30.373 63.9663C30.3817 64.2531 30.4608 64.5332 30.6032 64.7822C30.7456 65.0313 30.947 65.2415 31.1897 65.3944C31.4323 65.5474 31.7089 65.6384 31.9949 65.6595C32.281 65.6805 32.5679 65.631 32.8303 65.5152L37.1759 63.5996C37.5426 63.4355 37.9585 63.4081 38.3471 63.5121C40.3448 64.0594 42.4683 64.3549 44.6849 64.3549C57.0156 64.3549 66.5769 55.319 66.5769 43.1197C66.5769 30.9203 57.0156 21.8789 44.6849 21.8789ZM31.5387 49.326L37.9695 39.1244C38.2114 38.7403 38.5303 38.4105 38.9061 38.1559C39.2819 37.9013 39.7064 37.7273 40.1528 37.6451C40.5992 37.5628 41.0578 37.5739 41.4997 37.6778C41.9415 37.7817 42.3571 37.9761 42.72 38.2487L47.8373 42.0853C48.0658 42.2563 48.3437 42.3483 48.6291 42.3473C48.9144 42.3463 49.1917 42.2524 49.419 42.0798L56.3259 36.8366C57.2454 36.1361 58.4495 37.2416 57.8365 38.2213L51.4002 48.4175C51.1583 48.8016 50.8394 49.1314 50.4636 49.386C50.0878 49.6406 49.6633 49.8145 49.2169 49.8968C48.7705 49.9791 48.3119 49.968 47.87 49.8641C47.4282 49.7602 47.0126 49.5658 46.6497 49.2932L41.5324 45.4566C41.3039 45.2856 41.026 45.1936 40.7406 45.1946C40.4553 45.1956 40.178 45.2895 39.9507 45.4621L33.0438 50.7052C32.1243 51.4058 30.9202 50.3057 31.5387 49.326Z" fill="url(#paint0_radial_315_1613)"/>
</g>
<defs>
<radialGradient id="paint0_radial_315_1613" cx="0" cy="0" r="1" gradientUnits="userSpaceOnUse" gradientTransform="translate(30.1267 65.663) scale(48.1625 48.1625)">
<stop stop-color="#0099FF"/>
<stop offset="0.6" stop-color="#A033FF"/>
<stop offset="0.9" stop-color="#FF5280"/>
<stop offset="1" stop-color="#FF7061"/>
</radialGradient>
<clipPath id="clip0_315_1613">
<rect x="0.91394" width="87.5156" height="87.5156" rx="17.5031" fill="white"/>
</clipPath>
</defs>
</svg>
