<svg width="89" height="88" viewBox="0 0 89 88" fill="none" xmlns="http://www.w3.org/2000/svg">
<g clip-path="url(#clip0_315_1775)">
<rect x="0.820435" width="87.5156" height="87.5156" rx="17.5031" fill="white"/>
<path fill-rule="evenodd" clip-rule="evenodd" d="M88.3361 0H0.820435V87.5156H88.3361V0ZM25.8388 53.9736L22.6993 65.6367L34.491 62.4929C39.0784 64.9594 44.4036 65.6931 49.4895 64.5593C54.5754 63.4256 59.0809 60.5005 62.1791 56.3208C65.2774 52.141 66.7606 46.9871 66.3566 41.8046C65.9525 36.6221 63.6884 31.7588 59.9796 28.107C56.2709 24.4552 51.3662 22.26 46.1658 21.9241C40.9653 21.5882 35.8178 23.1342 31.6678 26.2784C27.5179 29.4226 24.6438 33.954 23.5731 39.0412C22.5024 44.1285 23.3068 49.4302 25.8388 53.9736ZM35.7889 58.5599L35.0596 58.1284L28.4715 59.8791L30.2267 53.3695L29.7694 52.6174C28.0934 49.8952 27.2077 46.7625 27.2108 43.568C27.2051 39.7153 28.4772 35.9689 30.829 32.9127C33.1807 29.8564 36.48 27.662 40.2127 26.6714C43.9453 25.6807 47.9017 25.9495 51.4652 27.4359C55.0287 28.9222 57.9992 31.5426 59.9138 34.8887C61.8284 38.2348 62.5795 42.1187 62.05 45.935C61.5206 49.7513 59.7404 53.2858 56.9868 55.9876C54.2332 58.6894 50.661 60.4067 46.8267 60.872C42.9924 61.3373 39.1116 60.5244 35.7889 58.5599ZM51.2957 45.855C51.8312 45.9768 52.3317 46.2189 52.7592 46.5628C52.8837 46.6358 53.0198 46.7113 53.1622 46.7902L53.1622 46.7903C53.981 47.2441 55.0047 47.8116 55.1942 48.6834C55.287 49.1838 55.2222 49.7006 55.0088 50.1628C54.6456 50.9281 54.0995 51.5925 53.4184 52.0977C52.7373 52.6029 51.9422 52.9334 51.103 53.0601C49.63 53.2268 48.1393 52.9925 46.7892 52.382C45.4895 51.9382 44.2453 51.3466 43.0811 50.619C40.7612 49.1872 38.7421 47.3198 37.1358 45.1203C36.6415 44.4507 36.1835 43.7552 35.7638 43.0368C35.182 42.0989 34.7406 41.0813 34.4536 40.0162C34.3406 39.5729 34.2825 39.1174 34.2805 38.66C34.2522 37.8455 34.4074 37.0349 34.7347 36.2882C35.0619 35.5414 35.553 34.8773 36.1717 34.3449C36.528 34.0285 36.9686 33.8218 37.4401 33.7496C37.9117 33.6774 38.3941 33.7428 38.8291 33.938C39.6727 34.6489 40.2946 35.5859 40.6214 36.6381C41.0441 37.3886 41.2415 38.2445 41.19 39.1038C40.9581 39.8829 40.5329 40.591 39.9539 41.1628C39.7885 41.304 39.6845 41.5037 39.6638 41.7198C39.643 41.936 39.7072 42.1517 39.8427 42.3217C41.4318 45.0448 43.8973 47.1521 46.8386 48.3012C47.0023 48.3906 47.193 48.4174 47.3751 48.3766C47.5571 48.3357 47.718 48.23 47.8275 48.0793C47.9902 47.8822 48.1529 47.6233 48.3244 47.3505L48.3244 47.3504L48.3245 47.3504C48.7 46.7529 49.1176 46.0886 49.6692 45.8601C50.2039 45.735 50.7602 45.7332 51.2957 45.855Z" fill="#00D95F"/>
</g>
<defs>
<clipPath id="clip0_315_1775">
<rect x="0.820435" width="87.5156" height="87.5156" rx="17.5031" fill="white"/>
</clipPath>
</defs>
</svg>
